# xmcd
#
# Track frame offsets: 
#        150
#        17640
#        35261
#        49714
#        66571
#        80585
#        98537
#        116737
#        132768
#        147518
#
# Disc length: 2199 seconds
#
# Revision: 0
# Processed by: cddbd v1.5.1PL2 Copyright (c) Steve Scherf et al.
# Submitted via: ExactAudioCopy v0.95b4
#
DISCID=8608950a
DTITLE=วัฒนา  อนันต์ - หนุ่มปาดตาล
DYEAR=1900
DGENRE=Country
TTITLE0=หนุ่มปาดตาล
TTITLE1=กุ้งกุลาพาช้ำ
TTITLE2=เด็กเครื่องไฟใจลอย
TTITLE3=หนุ่มโรงงาน
TTITLE4=เทพีรามัญ
TTITLE5=พบเธอที่หัวลำโพง
TTITLE6=เศษกะลา
TTITLE7=สะใภ้สุพรรณ
TTITLE8=เงินจางนางจร
TTITLE9=สาวหมายเลข 2
EXTD=
EXTT0=
EXTT1=
EXTT2=
EXTT3=
EXTT4=
EXTT5=
EXTT6=
EXTT7=
EXTT8=
EXTT9=
PLAYORDER=
